<?xml version="1.0" encoding="utf-8"?>
<!-- Generator: Adobe Illustrator 19.0.0, SVG Export Plug-In . SVG Version: 6.00 Build 0)  -->
<svg version="1.1" id="Camada_1" xmlns="http://www.w3.org/2000/svg" xmlns:xlink="http://www.w3.org/1999/xlink" x="0px" y="0px"
	 viewBox="1471.1 6.4 357.9 521.2" style="enable-background:new 1471.1 6.4 357.9 521.2;" xml:space="preserve">
<style type="text/css">
	.st0{fill:#0C7CEB;}
	.st1{font-family:'Arial-BoldMT';}
	.st2{font-size:64px;}
	.st3{display:none;}
	.st4{display:inline;fill:#FE2BF1;}
	.st5{display:inline;fill:#00DFBA;}
	.st6{letter-spacing:-5;}
</style>
<title>rock-paper-scissors-hand-icons</title>
<g id="Hand_icons">
	<path class="st0" d="M1609.2,227.3h40v-43.8c0-8.9,3.7-17.4,10.1-23.5L1674.7,51c1.5-12.4-7.4-23.7-19.8-25.2
		c-12.1-1.5-23.2,6.9-25.1,18.9l-21.2,145.5c-0.3,2.2-2.3,3.7-4.5,3.4c-1.8-0.3-3.1-1.6-3.4-3.4l-21.3-145.9
		c-1.7-12.4-13.2-21.1-25.6-19.3s-21.1,13.2-19.3,25.6c5.9,43.8,10.3,75,13.6,97.9c8.2,57.8,9.6,67.6,9.8,108.5
		C1568.4,238.6,1588,227.3,1609.2,227.3z"/>
	<path class="st0" d="M1738.3,276.1c-10.9,0-21-5.5-27-14.5c-6.5,17.5-23.2,29.1-41.9,29.1h-16c14.9,9.4,23.9,25.8,23.9,43.4v14
		c0,2.2-1.8,4-4,4s-4-1.8-4-4v-14c-0.1-23.9-19.5-43.3-43.4-43.3c-2.2,0-4-1.8-4-4l0,0c0-2.2,1.8-4,4-4h43.5
		c8.7,0,17.1-3.1,23.7-8.7c3.3-2.8,6-6.1,8.2-9.8c3-5.3,4.6-11.2,4.8-17.3c0-0.3,0-0.5,0-0.8c0-0.6-0.1-1.1-0.2-1.7
		c0-0.1,0-0.3,0-0.4c-1-5-5.4-8.6-10.5-8.6h-86.2c-28.4,0-51.3,23-51.4,51.4l0,0c0,30.6,11.5,58.2,32.4,77.8
		c20.8,19.3,48.6,29.2,76.8,27.4c53.6-3.5,95.6-50,95.6-105.8v-21C1756.5,272.1,1747.6,276.1,1738.3,276.1z"/>
	<path class="st0" d="M1738.3,184.7c-13.5,0-24.4,10.9-24.4,24.4v34.3c0.1,0.9,0.2,1.7,0.2,2.6c0,0.2,0,0.4,0,0.6
		c1.5,13.4,13.6,23,27,21.4c12.3-1.4,21.6-11.9,21.6-24.3V209C1762.7,195.6,1751.8,184.7,1738.3,184.7z"/>
	<path class="st0" d="M1673.7,160.4c-0.4,0.1-0.7,0.3-1,0.4c-0.3,0.1-0.7,0.3-1,0.4s-0.7,0.3-1.1,0.5l-0.9,0.5
		c-0.4,0.2-0.8,0.4-1.1,0.7s-0.5,0.3-0.8,0.5s-0.8,0.6-1.1,0.9c-0.2,0.2-0.4,0.3-0.7,0.5c-5.5,4.6-8.7,11.5-8.7,18.7v43.8h38.3
		c3.7,0,7.4,1.1,10.5,3.2v-47.1c0-12.5-9.5-23-21.9-24.2c-0.8-0.1-1.7-0.1-2.5-0.1c-0.8,0-1.5,0-2.3,0.1c-0.3,0-0.6,0.1-0.9,0.1
		s-0.9,0.1-1.3,0.2s-0.7,0.2-1.1,0.2s-0.7,0.2-1.1,0.3L1673.7,160.4z"/>
	<g id="Text">
		<text transform="matrix(1 0 0 1 1487.92 514.86)" class="st0 st1 st2">SCISSORS</text>
	</g>
</g>
<g class="st3">
	<text transform="matrix(1 0 0 1 1560.9611 512.1693)" class="st4 st1 st2">ROCK</text>
	<path class="st4" d="M1710.2,172.4V119c0-14.7-11.9-26.6-26.6-26.6c-14.7,0-26.6,11.9-26.6,26.6V171h46.9
		C1706.1,171,1708.2,171.5,1710.2,172.4z"/>
	<path class="st4" d="M1587.2,171v-54c0-12.3-9.9-22.2-22.2-22.2s-22.2,9.9-22.2,22.2v66.5c10-8.1,22.5-12.5,35.4-12.5L1587.2,171z"
		/>
	<path class="st4" d="M1742.9,226.5c-11.7,0-22.5-6.3-28.3-16.4c-7.6,18.8-25.8,31.1-46,31.1h-33.2c16.3,9.9,26.2,27.6,26.2,46.6v15
		c0,2.2-1.8,4-4,4s-4-1.8-4-4v-15c0-25.7-20.9-46.6-46.6-46.6h-0.7c-2.2,0-4-1.8-4-4l0,0c0-2.2,1.8-4,4-4h62.4
		c22.9,0,41.5-18.6,41.6-41.6v-6.4c0-3.5-2.8-6.3-6.3-6.3h0h-125.8c-14.2,0-27.7,6.3-36.9,17.1c-0.7,0.8-1.3,1.6-1.9,2.4
		c-0.3,0.3-0.5,0.7-0.7,1c-0.6,0.9-1.2,1.7-1.8,2.6c-0.2,0.3-0.3,0.6-0.5,0.9c-0.6,1-1.1,1.9-1.6,2.9l-0.2,0.5
		c-0.6,1.2-1.1,2.3-1.5,3.5c-0.1,0.2-0.1,0.3-0.2,0.5c-0.5,1.2-0.9,2.5-1.2,3.7c0,0.2-0.1,0.3-0.1,0.5c-0.3,1.3-0.6,2.5-0.9,3.8
		l-0.1,0.5c-0.2,1.3-0.4,2.6-0.5,3.9c0,0.2,0,0.3,0,0.5c-0.1,1.4-0.2,2.7-0.2,4.1c0,3.3,0.2,6.5,0.4,9.8
		c5,62.8,57.7,112.5,121.8,112.5h14.5c55.8-0.1,101.1-45.3,101.2-101.2v-33.3C1761.5,222.4,1752.4,226.5,1742.9,226.5z"/>
	<path class="st4" d="M1649,119.3c0-14.9-12.1-26.9-26.9-26.9c-14.9,0-26.9,12.1-26.9,26.9v51.6h53.8V119.3z"/>
	<path class="st4" d="M1742.9,131.4c-13.7,0-24.7,11.1-24.7,24.7v37.6c0.3,13.7,11.6,24.5,25.2,24.2c13.3-0.3,24-11,24.2-24.2v-37.6
		C1767.7,142.5,1756.6,131.4,1742.9,131.4z"/>
</g>
<g class="st3">
	<text transform="matrix(1 0 0 1 1552.4758 515.56)" class="st5 st1 st2 st6">P</text>
	<text transform="matrix(1 0 0 1 1583.9558 515.56)" class="st5 st1 st2">APER</text>
	<path class="st5" d="M1756.5,70.1c-10,0-18.1,8.1-18.1,18.1v86.4c0,2.2-1.8,4-4,4c-2.2,0-4-1.8-4-4V45.7c0-11.7-9.5-21.2-21.2-21.2
		c-5.7-0.1-11.3,2.2-15.3,6.3c-3.8,4-6,9.4-5.9,15v128.7c0,2.2-1.8,4-4,4s-4-1.8-4-4V47.4c0-12.6-10.2-22.8-22.9-22.9
		c-14.3,0-22.9,12.4-22.9,24.3v125.7c0,2.2-1.8,4-4,4s-4-1.8-4-4v-103c0-11.7-9.5-21.2-21.2-21.2c-13.3,0-21.2,11.5-21.2,22.5v156.3
		h47c18.8,0,36.6,8.2,48.8,22.4c1.4,1.7,1.3,4.2-0.4,5.6c-1.7,1.4-4.2,1.3-5.6-0.4c-10.7-12.4-26.4-19.6-42.8-19.6h-51
		c-0.2,0-0.4,0-0.5,0h-0.2c-0.3-0.1-0.6-0.2-1-0.3l-0.2-0.1c-0.3-0.1-0.5-0.3-0.7-0.5l-0.1-0.1l-19.8-18.6
		c-14.8-14-38.1-13.7-52.6,0.7c-3.8,3.7-3.9,9.8-0.3,13.6l75.1,81.5c30.1,33.4,60.8,47,105.7,47c49.2,0,89.2-40.4,89.2-90.1V89.1
		C1774.6,79.9,1768.2,70.1,1756.5,70.1z"/>
</g>
</svg>
